<?xml version="1.0" encoding="utf-8"?>
<!-- Generator: Adobe Illustrator 22.0.0, SVG Export Plug-In . SVG Version: 6.00 Build 0)  -->
<svg version="1.1" id="Layer_1" xmlns="http://www.w3.org/2000/svg" xmlns:xlink="http://www.w3.org/1999/xlink" x="0px" y="0px"
	 viewBox="0 0 200 75.9" style="enable-background:new 0 0 200 75.9;" xml:space="preserve">
<g>
	<g>
		<polygon points="183.1,5.9 152.6,5.9 154.5,0.7 183.1,0.7 		"/>
		<path d="M101.9,0.7l28.3,0L132,6c0,0-30.1,0-30.1,0C101.9,5.9,101.9,0.7,101.9,0.7z"/>
		<path d="M79.4,0.7c4.7,0.4,8.7,2.1,12.2,5.3c0,0-51.2,0-51.2,0c0,0,0-5.3,0-5.3L79.4,0.7z"/>
		<rect x="0.1" y="0.7" width="35.6" height="5.3"/>
		<path d="M183.1,15.8h-33.9c0,0,1.9-5.2,1.8-5.2h32.1V15.8z"/>
		<polygon points="135.5,15.8 101.9,15.8 101.9,10.6 133.7,10.6 		"/>
		<path d="M95.6,10.6c0.7,1.7,1.5,3.2,1.5,5.2H40.4v-5.2H95.6z"/>
		<rect x="0.1" y="10.6" width="35.6" height="5.2"/>
		<polygon points="145.7,25.7 147.5,20.4 173,20.4 173,25.7 		"/>
		<polygon points="137.1,20.4 139,25.7 111.9,25.7 111.9,20.4 		"/>
		<path d="M97.5,20.4c0,1.8-0.2,3.7-0.8,5.3H81.2v-5.3H97.5z"/>
		<rect x="10.1" y="20.4" width="15.3" height="5.2"/>
		<rect x="50.7" y="20.4" width="15.3" height="5.3"/>
		<path d="M127,31.3c0,0,0,4,0,4h-15v-5.2h28.7l1.8,4.9c0,0,1.7-4.9,1.7-4.9H173v5.2h-15c0,0,0-4,0-4l-1.4,4l-28.3,0L127,31.3z"/>
		<path d="M50.7,30.1h43.9v0c-1,1.8-2.7,3.9-4.4,5.2c0,0-39.5,0-39.5,0S50.7,30.1,50.7,30.1z"/>
		<rect x="10.1" y="30.1" width="15.3" height="5.2"/>
		<rect x="158" y="39.9" width="15" height="5.2"/>
		<path d="M127,39.9h-15v5.2c0,0,15.1,0,15.1,0C127,45.2,127,39.9,127,39.9z"/>
		<path d="M155,39.9c-0.1,0-1.8,5.2-1.8,5.2l-21.3,0c0,0-1.9-5.2-1.9-5.2H155z"/>
		<path d="M50.7,39.9h39.4c1.8,1.5,3.4,3.4,4.7,5.2c0.1,0-44.1,0-44.1,0C50.7,45.2,50.7,40,50.7,39.9z"/>
		<path d="M25.4,45.2v-5.2H10.1c0,0,0,5.2,0,5.2C10.1,45.2,25.3,45.2,25.4,45.2z"/>
		<rect x="158" y="49.8" width="15" height="5.2"/>
		<rect x="111.9" y="49.8" width="15" height="5.2"/>
		<path d="M149.7,55c0,0,1.8-5.3,1.9-5.3h-18.1c0,0,1.9,5.2,1.9,5.2S149.7,55.1,149.7,55z"/>
		<path d="M50.7,55c0,0,0-5.2,0-5.2l15.5,0c0,0,0,5.2,0,5.2C66.1,55,50.7,55,50.7,55z"/>
		<path d="M97,49.8c0.7,1.6,0.8,3.5,1,5.3H81.5v-5.3H97z"/>
		<rect x="10.1" y="49.8" width="15.3" height="5.2"/>
		<rect x="158" y="59.4" width="25" height="5.2"/>
		<rect x="101.9" y="59.4" width="25.1" height="5.2"/>
		<polygon points="146.3,64.7 138.7,64.7 136.8,59.4 148.1,59.4 		"/>
		<path d="M0.1,59.4v5.2h35.6c0,0,0-5.2,0-5.2C35.7,59.5,0.1,59.4,0.1,59.4z"/>
		<path d="M97.3,59.4c-0.4,1.7-0.7,3.8-2,5.2l-0.5,0H40.4v-5.2H97.3z"/>
		<polygon points="142.8,74.5 142.1,74.5 140.3,69.3 144.7,69.3 		"/>
		<rect x="158" y="69.3" width="25" height="5.3"/>
		<path d="M40.3,74.5v-5.2c0,0,51.4,0,51.5,0c-3.4,3.3-8.2,5.2-13.3,5.2L40.3,74.5"/>
		<rect x="101.9" y="69.3" width="25.1" height="5.3"/>
		<path d="M35.7,69.3c0,0,0,5.2,0,5.2c0,0-35.6,0-35.6,0c0,0,0-5.2,0-5.2C0.1,69.3,35.7,69.3,35.7,69.3z"/>
	</g>
	<path d="M188.7,69.5c0-2.8,2.3-5.1,5.1-5.1c2.8,0,5.1,2.3,5.1,5.1c0,2.8-2.3,5.1-5.1,5.1C191,74.6,188.7,72.3,188.7,69.5z
		 M198.1,69.5c0-2.5-1.8-4.4-4.3-4.4c-2.5,0-4.3,1.9-4.3,4.4c0,2.5,1.8,4.4,4.3,4.4C196.3,74,198.1,72,198.1,69.5z M196.4,72.4h-0.8
		l-1.6-2.6h-1.3v2.6h-0.7v-5.7h2.5c1.5,0,2,0.6,2,1.5c0,1.1-0.8,1.5-1.8,1.6L196.4,72.4z M193.7,69.2c0.8,0,2,0.1,2-1
		c0-0.9-0.7-1-1.4-1h-1.6v2H193.7z"/>
</g>
</svg>
